<svg width="43" height="48" viewBox="0 0 43 48" fill="none" xmlns="http://www.w3.org/2000/svg">
<g clip-path="url(#clip0_9187_147129)">
<path d="M36.9735 9.21446C36.935 8.98313 36.7422 8.82892 36.5494 8.82892C36.3566 8.82892 32.9639 8.75181 32.9639 8.75181C32.9639 8.75181 30.1109 5.9759 29.841 5.70602C29.5711 5.43614 28.9928 5.51325 28.8 5.59036C28.8 5.59036 28.2603 5.74458 27.3735 6.01446C27.2193 5.51325 26.988 4.93494 26.6795 4.31807C25.6771 2.39036 24.1735 1.3494 22.4 1.3494C22.2844 1.3494 22.1687 1.3494 22.0145 1.38795C21.9759 1.31084 21.8988 1.27229 21.8603 1.19518C21.0892 0.346988 20.0868 -0.0385536 18.8916 5.75279e-07C16.5783 0.077109 14.2651 1.73494 12.4145 4.70361C11.1036 6.78554 10.1012 9.40723 9.79279 11.4506C7.13255 12.2602 5.28195 12.8386 5.24339 12.8771C3.894 13.3012 3.85544 13.3398 3.70122 14.612C3.58556 15.5759 0.0385742 42.7566 0.0385742 42.7566L29.494 47.8458L42.2554 44.6843C42.2169 44.6458 37.0121 9.44578 36.9735 9.21446ZM25.9085 6.47711C25.2145 6.66988 24.4434 6.93976 23.6338 7.17108C23.6338 6.01446 23.4795 4.35663 22.9398 2.96867C24.6747 3.31566 25.5229 5.28193 25.9085 6.47711ZM22.053 7.67229C20.5109 8.13494 18.8145 8.6747 17.1181 9.1759C17.5807 7.36386 18.506 5.55181 19.5856 4.35663C20.0097 3.93253 20.588 3.43133 21.2434 3.12289C21.9374 4.47229 22.0916 6.36145 22.053 7.67229ZM18.9301 1.54217C19.4699 1.54217 19.9326 1.65783 20.3181 1.88916C19.7012 2.23614 19.0844 2.6988 18.506 3.31566C17.041 4.89639 15.9229 7.36386 15.4603 9.71566C14.0723 10.1398 12.6844 10.5639 11.4121 10.9494C12.2217 7.24819 15.3446 1.65783 18.9301 1.54217Z" fill="#95BF47"/>
<path d="M36.5494 8.82891C36.3566 8.82891 32.9639 8.7518 32.9639 8.7518C32.9639 8.7518 30.1109 5.9759 29.841 5.70602C29.7253 5.59035 29.6097 5.5518 29.4554 5.51324V47.8072L42.2169 44.6458C42.2169 44.6458 37.0121 9.44578 36.9735 9.1759C36.935 8.98312 36.7422 8.82891 36.5494 8.82891Z" fill="#5E8E3E"/>
<path d="M22.3615 15.3831L20.8964 20.9349C20.8964 20.9349 19.2386 20.1638 17.2723 20.3181C14.3808 20.5108 14.3808 22.3229 14.3808 22.7855C14.535 25.253 21.0506 25.7928 21.4362 31.6144C21.7061 36.2024 19.0073 39.3253 15.1133 39.5566C10.4097 39.865 7.82654 37.0891 7.82654 37.0891L8.82895 32.8482C8.82895 32.8482 11.4121 34.8144 13.494 34.6602C14.8434 34.5831 15.3446 33.465 15.3061 32.694C15.1133 29.4554 9.7928 29.6482 9.44582 24.3277C9.17594 19.8554 12.1061 15.306 18.5832 14.9205C21.0892 14.7277 22.3615 15.3831 22.3615 15.3831Z" fill="white"/>
</g>
<defs>
<clipPath id="clip0_9187_147129">
<rect width="42.2169" height="48" fill="white"/>
</clipPath>
</defs>
</svg>
