<svg width="396" height="56" viewBox="0 0 396 56" fill="none" xmlns="http://www.w3.org/2000/svg">
<rect width="396" height="56" rx="5" fill="#323C52"/>
<path d="M17.3906 33.5H24.6875V31.8047H19.4062V28.5781H24.3984V26.9766H19.4062V23.9219H24.6875V22.2266H17.3906V33.5ZM29.3125 33.6406C30.4375 33.6406 31.3438 33.1562 31.8125 32.3281H31.9453V33.5H33.8672V27.6641C33.8672 25.8594 32.6328 24.7969 30.4375 24.7969C28.4062 24.7969 27.0312 25.75 26.8438 27.1875L26.8359 27.2578H28.6719L28.6797 27.2266C28.875 26.6641 29.4531 26.3438 30.3438 26.3438C31.3906 26.3438 31.9453 26.8125 31.9453 27.6641V28.3984L29.75 28.5312C27.6719 28.6562 26.5078 29.5469 26.5078 31.0703V31.0859C26.5078 32.6406 27.6875 33.6406 29.3125 33.6406ZM28.4297 30.9922V30.9766C28.4297 30.2734 28.9375 29.875 30.0234 29.8047L31.9453 29.6797V30.3672C31.9453 31.3828 31.0781 32.1484 29.9062 32.1484C29.0469 32.1484 28.4297 31.7188 28.4297 30.9922ZM36.2031 33.5H38.1484V28.5391C38.1484 27.3203 39 26.5469 40.2969 26.5469C40.6328 26.5469 40.9531 26.5938 41.2656 26.6562V24.9141C41.0781 24.8594 40.7734 24.8203 40.4766 24.8203C39.3516 24.8203 38.5703 25.3594 38.2812 26.2734H38.1484V24.9609H36.2031V33.5ZM42.9688 33.5H44.9141V28.5234C44.9141 27.2422 45.6328 26.4297 46.7891 26.4297C47.9688 26.4297 48.5078 27.1016 48.5078 28.4297V33.5H50.4531V27.9766C50.4531 25.9453 49.4141 24.7969 47.5078 24.7969C46.2734 24.7969 45.4531 25.3516 45.0469 26.2656H44.9141V24.9609H42.9688V33.5ZM59.7656 33.5H61.7812V22.2266H59.7734L56.8281 24.2969V26.1953L59.6328 24.2109H59.7656V33.5ZM69.0469 33.7812C71.7266 33.7812 73.3516 31.5078 73.3516 27.8672V27.8516C73.3516 24.2109 71.7266 21.9453 69.0469 21.9453C66.3672 21.9453 64.7578 24.2109 64.7578 27.8516V27.8672C64.7578 31.5078 66.3672 33.7812 69.0469 33.7812ZM69.0469 32.1484C67.6094 32.1484 66.7891 30.5391 66.7891 27.8672V27.8516C66.7891 25.1797 67.6094 23.5859 69.0469 23.5859C70.4844 23.5859 71.3203 25.1797 71.3203 27.8516V27.8672C71.3203 30.5391 70.4844 32.1484 69.0469 32.1484ZM77.9297 28.3125C79.5 28.3125 80.4609 27.1172 80.4609 25.1953V25.1875C80.4609 23.2656 79.5 22.0703 77.9297 22.0703C76.3516 22.0703 75.3984 23.2656 75.3984 25.1875V25.1953C75.3984 27.1172 76.3516 28.3125 77.9297 28.3125ZM79.3359 33.5L86.9531 22.2266H85.3438L77.7266 33.5H79.3359ZM77.9297 27.1797C77.2109 27.1797 76.8125 26.4531 76.8125 25.1953V25.1875C76.8125 23.9219 77.2109 23.2031 77.9297 23.2031C78.6406 23.2031 79.0547 23.9219 79.0547 25.1875V25.1953C79.0547 26.4531 78.6406 27.1797 77.9297 27.1797ZM86.75 33.6562C88.3203 33.6562 89.2812 32.4531 89.2812 30.5312V30.5234C89.2812 28.6016 88.3203 27.4141 86.75 27.4141C85.1719 27.4141 84.2109 28.6016 84.2109 30.5234V30.5312C84.2109 32.4531 85.1719 33.6562 86.75 33.6562ZM86.75 32.5234C86.0312 32.5234 85.625 31.7969 85.625 30.5312V30.5234C85.625 29.2656 86.0312 28.5469 86.75 28.5469C87.4609 28.5469 87.875 29.2656 87.875 30.5234V30.5312C87.875 31.7969 87.4609 32.5234 86.75 32.5234ZM95.7656 33.5H97.7109V28.5391C97.7109 27.3203 98.5625 26.5469 99.8594 26.5469C100.195 26.5469 100.516 26.5938 100.828 26.6562V24.9141C100.641 24.8594 100.336 24.8203 100.039 24.8203C98.9141 24.8203 98.1328 25.3594 97.8438 26.2734H97.7109V24.9609H95.7656V33.5ZM105.859 33.6719C108.18 33.6719 109.32 32.3359 109.594 31.2344L109.617 31.1641H107.766L107.742 31.2188C107.555 31.6094 106.953 32.1406 105.898 32.1406C104.578 32.1406 103.75 31.25 103.727 29.7188H109.695V29.0781C109.695 26.5 108.195 24.7969 105.766 24.7969C103.336 24.7969 101.781 26.5547 101.781 29.2422V29.25C101.781 31.9688 103.32 33.6719 105.859 33.6719ZM105.789 26.3203C106.875 26.3203 107.664 27.0156 107.797 28.4141H103.742C103.891 27.0547 104.703 26.3203 105.789 26.3203ZM116.391 33.6406C118.531 33.6406 119.898 31.9453 119.898 29.2422V29.2266C119.898 26.5078 118.555 24.8203 116.391 24.8203C115.219 24.8203 114.242 25.3984 113.797 26.3203H113.664V21.6562H111.719V33.5H113.664V32.1641H113.797C114.266 33.0938 115.195 33.6406 116.391 33.6406ZM115.781 32C114.461 32 113.641 30.9531 113.641 29.2422V29.2266C113.641 27.5156 114.461 26.4609 115.781 26.4609C117.109 26.4609 117.914 27.5078 117.914 29.2266V29.2422C117.914 30.9609 117.109 32 115.781 32ZM124.172 33.6406C125.297 33.6406 126.203 33.1562 126.672 32.3281H126.805V33.5H128.727V27.6641C128.727 25.8594 127.492 24.7969 125.297 24.7969C123.266 24.7969 121.891 25.75 121.703 27.1875L121.695 27.2578H123.531L123.539 27.2266C123.734 26.6641 124.312 26.3438 125.203 26.3438C126.25 26.3438 126.805 26.8125 126.805 27.6641V28.3984L124.609 28.5312C122.531 28.6562 121.367 29.5469 121.367 31.0703V31.0859C121.367 32.6406 122.547 33.6406 124.172 33.6406ZM123.289 30.9922V30.9766C123.289 30.2734 123.797 29.875 124.883 29.8047L126.805 29.6797V30.3672C126.805 31.3828 125.938 32.1484 124.766 32.1484C123.906 32.1484 123.289 31.7188 123.289 30.9922ZM134.422 33.5391C134.797 33.5391 135.156 33.5078 135.438 33.4531V31.9531C135.203 31.9766 135.055 31.9844 134.781 31.9844C133.969 31.9844 133.633 31.625 133.633 30.7734V26.4688H135.438V24.9609H133.633V22.8672H131.656V24.9609H130.328V26.4688H131.656V31.2344C131.656 32.8828 132.461 33.5391 134.422 33.5391ZM140.953 33.6719C143.273 33.6719 144.414 32.3359 144.688 31.2344L144.711 31.1641H142.859L142.836 31.2188C142.648 31.6094 142.047 32.1406 140.992 32.1406C139.672 32.1406 138.844 31.25 138.82 29.7188H144.789V29.0781C144.789 26.5 143.289 24.7969 140.859 24.7969C138.43 24.7969 136.875 26.5547 136.875 29.2422V29.25C136.875 31.9688 138.414 33.6719 140.953 33.6719ZM140.883 26.3203C141.969 26.3203 142.758 27.0156 142.891 28.4141H138.836C138.984 27.0547 139.797 26.3203 140.883 26.3203ZM152.625 33.5H154.641L156.297 27.3125H156.43L158.094 33.5H160.133L162.445 24.9609H160.516L159.102 31.375H158.969L157.312 24.9609H155.461L153.82 31.375H153.688L152.266 24.9609H150.312L152.625 33.5ZM165.141 23.5312C165.773 23.5312 166.297 23.0234 166.297 22.3828C166.297 21.75 165.773 21.2344 165.141 21.2344C164.5 21.2344 163.977 21.75 163.977 22.3828C163.977 23.0234 164.5 23.5312 165.141 23.5312ZM164.164 33.5H166.109V24.9609H164.164V33.5ZM171.859 33.5391C172.234 33.5391 172.594 33.5078 172.875 33.4531V31.9531C172.641 31.9766 172.492 31.9844 172.219 31.9844C171.406 31.9844 171.07 31.625 171.07 30.7734V26.4688H172.875V24.9609H171.07V22.8672H169.094V24.9609H167.766V26.4688H169.094V31.2344C169.094 32.8828 169.898 33.5391 171.859 33.5391ZM174.891 33.5H176.836V28.5234C176.836 27.2422 177.555 26.4297 178.711 26.4297C179.891 26.4297 180.43 27.1016 180.43 28.4297V33.5H182.375V27.9766C182.375 25.9453 181.336 24.7969 179.43 24.7969C178.195 24.7969 177.375 25.3516 176.969 26.2656H176.836V21.6562H174.891V33.5Z" fill="white"/>
<path d="M321.608 28.7102H319.271V32.4933H317.201V20.7227H321.843C324.584 20.7227 326.315 22.2697 326.315 24.6748C326.315 27.3323 324.195 28.7102 321.606 28.7102H321.608ZM321.676 22.6053H319.271V26.8427H321.676C323.241 26.8427 324.215 25.9846 324.215 24.7227C324.215 23.3271 323.223 22.6028 321.676 22.6028V22.6053Z" fill="#129DFF"/>
<path d="M333.69 32.4807V31.3879C333.085 32.1122 332.161 32.6649 330.816 32.6649C329.135 32.6649 327.653 31.7059 327.653 29.9242V29.8914C327.653 27.9733 329.183 27.032 331.252 27.032C332.328 27.032 333.019 27.1834 333.708 27.403V27.1834C333.708 25.9569 332.933 25.2831 331.522 25.2831C330.53 25.2831 329.791 25.5026 328.983 25.8383L328.428 24.208C329.402 23.7714 330.361 23.4685 331.808 23.4685C334.43 23.4685 335.71 24.8465 335.71 27.2187V32.4832H333.69V32.4807ZM333.741 28.7128C333.218 28.5109 332.497 28.3595 331.707 28.3595C330.429 28.3595 329.672 28.8819 329.672 29.7879V29.8207C329.672 30.6611 330.429 31.133 331.389 31.133C332.734 31.133 333.743 30.3759 333.743 29.2655V28.7103L333.741 28.7128Z" fill="#129DFF"/>
<path d="M346 23.5996L341.689 34.8655H339.713L340.654 32.4831L336.962 23.5996H339.041L341.56 30.1613L343.981 23.5996H346Z" fill="#129DFF"/>
<path d="M223.889 32.4707C221.335 32.4707 219.447 30.4694 219.447 28.0113C219.447 25.5532 221.335 23.5039 223.907 23.5039C225.535 23.5039 226.544 24.1071 227.342 24.9853L226.12 26.3027C225.517 25.6693 224.884 25.2276 223.889 25.2276C222.458 25.2276 221.416 26.4642 221.416 27.9785C221.416 29.4927 222.473 30.7621 223.988 30.7621C224.916 30.7621 225.598 30.323 226.219 29.687L227.408 30.858C226.562 31.8019 225.568 32.4681 223.892 32.4681L223.889 32.4707Z" fill="white"/>
<path d="M231.141 32.4707H229.172V23.5191H231.141V25.6188C231.678 24.3342 232.67 23.4534 234.185 23.5191V25.6011H234.071C232.345 25.6011 231.141 26.7242 231.141 29.0031V32.4707V32.4707Z" fill="white"/>
<path d="M244.493 23.5039L240.141 34.8808H238.145L239.096 32.4732L235.368 23.5039H237.468L240.012 30.1287L242.453 23.5039H244.493Z" fill="white"/>
<path d="M250.76 32.4555C249.344 32.4555 248.448 31.7388 247.847 30.9413V34.8808H245.878V23.5039H247.847V25.114C248.48 24.2181 249.376 23.5039 250.76 23.5039C252.794 23.5039 254.763 25.114 254.763 27.9785C254.763 30.8429 252.809 32.453 250.76 32.453V32.4555ZM250.303 25.2125C248.968 25.2125 247.796 26.3027 247.796 27.9785C247.796 29.6542 248.968 30.7444 250.303 30.7444C251.638 30.7444 252.761 29.687 252.761 27.9785C252.761 26.2699 251.638 25.2125 250.303 25.2125Z" fill="white"/>
<path d="M259.081 25.374V29.5886C259.081 30.3533 259.47 30.6612 260.139 30.6612H260.911V32.4203H259.563C258.13 32.4152 257.112 31.7792 257.112 29.8965V25.374H256.02V23.6832H257.112V21.3235H259.081V23.6832H260.911V25.374H259.081Z" fill="white"/>
<path d="M267.14 32.4707C264.52 32.4707 262.582 30.4694 262.582 28.0113C262.582 25.5532 264.535 23.5039 267.173 23.5039C269.811 23.5039 271.747 25.5052 271.747 27.9785C271.747 30.4517 269.793 32.4707 267.14 32.4707ZM267.14 25.2276C265.56 25.2276 264.553 26.4642 264.553 27.9785C264.553 29.4927 265.644 30.7621 267.173 30.7621C268.703 30.7621 269.778 29.5255 269.778 28.0113C269.778 26.497 268.687 25.2276 267.14 25.2276Z" fill="white"/>
<path d="M290.573 32.4707C287.953 32.4707 286.015 30.4694 286.015 28.0113C286.015 25.5532 287.968 23.5039 290.606 23.5039C293.243 23.5039 295.179 25.5052 295.179 27.9785C295.179 30.4517 293.226 32.4707 290.573 32.4707ZM290.573 25.2276C288.993 25.2276 287.986 26.4642 287.986 27.9785C287.986 29.4927 289.076 30.7621 290.606 30.7621C292.135 30.7621 293.211 29.5255 293.211 28.0113C293.211 26.497 292.12 25.2276 290.573 25.2276Z" fill="white"/>
<path d="M306.886 23.5039C308.758 23.5039 309.897 24.6926 309.897 26.7923V32.4732H307.928V27.3955C307.928 26.0276 307.295 25.2957 306.186 25.2957C305.078 25.2957 304.346 26.0453 304.346 27.4283V32.4732H302.378V27.3803C302.378 26.0453 301.727 25.2983 300.636 25.2983C299.546 25.2983 298.796 26.1109 298.796 27.4459V32.4757H296.828V23.5039H298.796V24.9853C299.349 24.2206 300.099 23.5039 301.416 23.5039C302.653 23.5039 303.516 24.1071 303.97 25.0181C304.67 24.1071 305.581 23.5039 306.883 23.5039H306.886Z" fill="white"/>
<path d="M275.351 30.6637V31.6555C275.351 31.6984 275.331 31.7363 275.293 31.754L274.435 32.2511C274.399 32.2713 274.354 32.2713 274.321 32.2511L273.46 31.754C273.425 31.7338 273.402 31.6959 273.402 31.6555V30.6637C273.402 30.6233 273.425 30.5855 273.46 30.5653L274.321 30.0681C274.356 30.0479 274.399 30.0479 274.435 30.0681L275.293 30.5653C275.328 30.5855 275.351 30.6233 275.351 30.6637Z" fill="white"/>
<path d="M281.345 32.4605C278.791 32.4126 276.941 30.3734 276.989 27.9178C277.037 25.4597 278.963 23.4458 281.535 23.4963C283.163 23.5266 284.16 24.1499 284.94 25.0433L283.693 26.338C283.102 25.6919 282.476 25.2402 281.484 25.22C280.053 25.1922 278.988 26.4087 278.958 27.9229C278.927 29.4699 279.962 30.7242 281.474 30.7545C282.403 30.7722 283.094 30.3456 283.725 29.7223L284.892 30.916C284.028 31.8447 283.021 32.4908 281.345 32.4605V32.4605Z" fill="white"/>
<path d="M205.434 28.1425L206.224 26.0352H201.436L202.241 28.1425L201.996 30.5021H203.821L205.663 30.492L205.434 28.1425Z" fill="white"/>
<path d="M208.415 26.7417L206.249 28.1499V30.6535L204.593 32.2434V32.9879L206.188 34.4592H207.521L210.886 28.5992L208.415 26.7417Z" fill="white"/>
<path d="M207.506 21.697H200.111L199.252 25.4674H208.397L207.506 21.697Z" fill="white"/>
<path d="M201.426 28.1502L199.237 26.7571L196.759 28.5994L200.136 34.4746H201.486L203.081 32.9881V32.2436L201.426 30.6537V28.1502Z" fill="white"/>
<path d="M203.813 16.6697L194.025 22.3203L194 22.3354V33.6644L203.788 39.315L203.813 39.3301L213.624 33.6644V22.3354L203.813 16.6697ZM195.002 22.9133L203.813 17.8255L212.625 22.9133V33.0864L203.813 38.1717L195.002 33.0864V22.9133Z" fill="white"/>
<path fill-rule="evenodd" clip-rule="evenodd" d="M368 18.5349C362.773 18.5349 358.535 22.7726 358.535 28C358.535 33.2274 362.773 37.4651 368 37.4651C373.227 37.4651 377.465 33.2274 377.465 28C377.465 22.7726 373.227 18.5349 368 18.5349ZM357 28C357 21.9249 361.925 17 368 17C374.075 17 379 21.9249 379 28C379 34.0751 374.075 39 368 39C361.925 39 357 34.0751 357 28Z" fill="white"/>
<path fill-rule="evenodd" clip-rule="evenodd" d="M368 26.3953C368.424 26.3953 368.767 26.7389 368.767 27.1628V33.1163C368.767 33.5401 368.424 33.8837 368 33.8837C367.576 33.8837 367.233 33.5401 367.233 33.1163V27.1628C367.233 26.7389 367.576 26.3953 368 26.3953Z" fill="white"/>
<path d="M369.023 23.907C369.023 24.4721 368.565 24.9302 368 24.9302C367.435 24.9302 366.977 24.4721 366.977 23.907C366.977 23.3418 367.435 22.8837 368 22.8837C368.565 22.8837 369.023 23.3418 369.023 23.907Z" fill="white"/>
</svg>
