<svg width="396" height="56" viewBox="0 0 396 56" fill="none" xmlns="http://www.w3.org/2000/svg">
<rect width="396" height="56" rx="5" fill="#EAEEF4"/>
<path d="M17.3906 33.5H24.6875V31.8047H19.4062V28.5781H24.3984V26.9766H19.4062V23.9219H24.6875V22.2266H17.3906V33.5ZM29.3125 33.6406C30.4375 33.6406 31.3438 33.1562 31.8125 32.3281H31.9453V33.5H33.8672V27.6641C33.8672 25.8594 32.6328 24.7969 30.4375 24.7969C28.4062 24.7969 27.0312 25.75 26.8438 27.1875L26.8359 27.2578H28.6719L28.6797 27.2266C28.875 26.6641 29.4531 26.3438 30.3438 26.3438C31.3906 26.3438 31.9453 26.8125 31.9453 27.6641V28.3984L29.75 28.5312C27.6719 28.6562 26.5078 29.5469 26.5078 31.0703V31.0859C26.5078 32.6406 27.6875 33.6406 29.3125 33.6406ZM28.4297 30.9922V30.9766C28.4297 30.2734 28.9375 29.875 30.0234 29.8047L31.9453 29.6797V30.3672C31.9453 31.3828 31.0781 32.1484 29.9062 32.1484C29.0469 32.1484 28.4297 31.7188 28.4297 30.9922ZM36.2031 33.5H38.1484V28.5391C38.1484 27.3203 39 26.5469 40.2969 26.5469C40.6328 26.5469 40.9531 26.5938 41.2656 26.6562V24.9141C41.0781 24.8594 40.7734 24.8203 40.4766 24.8203C39.3516 24.8203 38.5703 25.3594 38.2812 26.2734H38.1484V24.9609H36.2031V33.5ZM42.9688 33.5H44.9141V28.5234C44.9141 27.2422 45.6328 26.4297 46.7891 26.4297C47.9688 26.4297 48.5078 27.1016 48.5078 28.4297V33.5H50.4531V27.9766C50.4531 25.9453 49.4141 24.7969 47.5078 24.7969C46.2734 24.7969 45.4531 25.3516 45.0469 26.2656H44.9141V24.9609H42.9688V33.5ZM59.7656 33.5H61.7812V22.2266H59.7734L56.8281 24.2969V26.1953L59.6328 24.2109H59.7656V33.5ZM69.0469 33.7812C71.7266 33.7812 73.3516 31.5078 73.3516 27.8672V27.8516C73.3516 24.2109 71.7266 21.9453 69.0469 21.9453C66.3672 21.9453 64.7578 24.2109 64.7578 27.8516V27.8672C64.7578 31.5078 66.3672 33.7812 69.0469 33.7812ZM69.0469 32.1484C67.6094 32.1484 66.7891 30.5391 66.7891 27.8672V27.8516C66.7891 25.1797 67.6094 23.5859 69.0469 23.5859C70.4844 23.5859 71.3203 25.1797 71.3203 27.8516V27.8672C71.3203 30.5391 70.4844 32.1484 69.0469 32.1484ZM77.9297 28.3125C79.5 28.3125 80.4609 27.1172 80.4609 25.1953V25.1875C80.4609 23.2656 79.5 22.0703 77.9297 22.0703C76.3516 22.0703 75.3984 23.2656 75.3984 25.1875V25.1953C75.3984 27.1172 76.3516 28.3125 77.9297 28.3125ZM79.3359 33.5L86.9531 22.2266H85.3438L77.7266 33.5H79.3359ZM77.9297 27.1797C77.2109 27.1797 76.8125 26.4531 76.8125 25.1953V25.1875C76.8125 23.9219 77.2109 23.2031 77.9297 23.2031C78.6406 23.2031 79.0547 23.9219 79.0547 25.1875V25.1953C79.0547 26.4531 78.6406 27.1797 77.9297 27.1797ZM86.75 33.6562C88.3203 33.6562 89.2812 32.4531 89.2812 30.5312V30.5234C89.2812 28.6016 88.3203 27.4141 86.75 27.4141C85.1719 27.4141 84.2109 28.6016 84.2109 30.5234V30.5312C84.2109 32.4531 85.1719 33.6562 86.75 33.6562ZM86.75 32.5234C86.0312 32.5234 85.625 31.7969 85.625 30.5312V30.5234C85.625 29.2656 86.0312 28.5469 86.75 28.5469C87.4609 28.5469 87.875 29.2656 87.875 30.5234V30.5312C87.875 31.7969 87.4609 32.5234 86.75 32.5234ZM95.7656 33.5H97.7109V28.5391C97.7109 27.3203 98.5625 26.5469 99.8594 26.5469C100.195 26.5469 100.516 26.5938 100.828 26.6562V24.9141C100.641 24.8594 100.336 24.8203 100.039 24.8203C98.9141 24.8203 98.1328 25.3594 97.8438 26.2734H97.7109V24.9609H95.7656V33.5ZM105.859 33.6719C108.18 33.6719 109.32 32.3359 109.594 31.2344L109.617 31.1641H107.766L107.742 31.2188C107.555 31.6094 106.953 32.1406 105.898 32.1406C104.578 32.1406 103.75 31.25 103.727 29.7188H109.695V29.0781C109.695 26.5 108.195 24.7969 105.766 24.7969C103.336 24.7969 101.781 26.5547 101.781 29.2422V29.25C101.781 31.9688 103.32 33.6719 105.859 33.6719ZM105.789 26.3203C106.875 26.3203 107.664 27.0156 107.797 28.4141H103.742C103.891 27.0547 104.703 26.3203 105.789 26.3203ZM116.391 33.6406C118.531 33.6406 119.898 31.9453 119.898 29.2422V29.2266C119.898 26.5078 118.555 24.8203 116.391 24.8203C115.219 24.8203 114.242 25.3984 113.797 26.3203H113.664V21.6562H111.719V33.5H113.664V32.1641H113.797C114.266 33.0938 115.195 33.6406 116.391 33.6406ZM115.781 32C114.461 32 113.641 30.9531 113.641 29.2422V29.2266C113.641 27.5156 114.461 26.4609 115.781 26.4609C117.109 26.4609 117.914 27.5078 117.914 29.2266V29.2422C117.914 30.9609 117.109 32 115.781 32ZM124.172 33.6406C125.297 33.6406 126.203 33.1562 126.672 32.3281H126.805V33.5H128.727V27.6641C128.727 25.8594 127.492 24.7969 125.297 24.7969C123.266 24.7969 121.891 25.75 121.703 27.1875L121.695 27.2578H123.531L123.539 27.2266C123.734 26.6641 124.312 26.3438 125.203 26.3438C126.25 26.3438 126.805 26.8125 126.805 27.6641V28.3984L124.609 28.5312C122.531 28.6562 121.367 29.5469 121.367 31.0703V31.0859C121.367 32.6406 122.547 33.6406 124.172 33.6406ZM123.289 30.9922V30.9766C123.289 30.2734 123.797 29.875 124.883 29.8047L126.805 29.6797V30.3672C126.805 31.3828 125.938 32.1484 124.766 32.1484C123.906 32.1484 123.289 31.7188 123.289 30.9922ZM134.422 33.5391C134.797 33.5391 135.156 33.5078 135.438 33.4531V31.9531C135.203 31.9766 135.055 31.9844 134.781 31.9844C133.969 31.9844 133.633 31.625 133.633 30.7734V26.4688H135.438V24.9609H133.633V22.8672H131.656V24.9609H130.328V26.4688H131.656V31.2344C131.656 32.8828 132.461 33.5391 134.422 33.5391ZM140.953 33.6719C143.273 33.6719 144.414 32.3359 144.688 31.2344L144.711 31.1641H142.859L142.836 31.2188C142.648 31.6094 142.047 32.1406 140.992 32.1406C139.672 32.1406 138.844 31.25 138.82 29.7188H144.789V29.0781C144.789 26.5 143.289 24.7969 140.859 24.7969C138.43 24.7969 136.875 26.5547 136.875 29.2422V29.25C136.875 31.9688 138.414 33.6719 140.953 33.6719ZM140.883 26.3203C141.969 26.3203 142.758 27.0156 142.891 28.4141H138.836C138.984 27.0547 139.797 26.3203 140.883 26.3203ZM152.625 33.5H154.641L156.297 27.3125H156.43L158.094 33.5H160.133L162.445 24.9609H160.516L159.102 31.375H158.969L157.312 24.9609H155.461L153.82 31.375H153.688L152.266 24.9609H150.312L152.625 33.5ZM165.141 23.5312C165.773 23.5312 166.297 23.0234 166.297 22.3828C166.297 21.75 165.773 21.2344 165.141 21.2344C164.5 21.2344 163.977 21.75 163.977 22.3828C163.977 23.0234 164.5 23.5312 165.141 23.5312ZM164.164 33.5H166.109V24.9609H164.164V33.5ZM171.859 33.5391C172.234 33.5391 172.594 33.5078 172.875 33.4531V31.9531C172.641 31.9766 172.492 31.9844 172.219 31.9844C171.406 31.9844 171.07 31.625 171.07 30.7734V26.4688H172.875V24.9609H171.07V22.8672H169.094V24.9609H167.766V26.4688H169.094V31.2344C169.094 32.8828 169.898 33.5391 171.859 33.5391ZM174.891 33.5H176.836V28.5234C176.836 27.2422 177.555 26.4297 178.711 26.4297C179.891 26.4297 180.43 27.1016 180.43 28.4297V33.5H182.375V27.9766C182.375 25.9453 181.336 24.7969 179.43 24.7969C178.195 24.7969 177.375 25.3516 176.969 26.2656H176.836V21.6562H174.891V33.5Z" fill="#323C52"/>
<path d="M321.53 28.7291H319.193V32.5146H317.125V20.7378H321.768C324.51 20.7378 326.242 22.2849 326.242 24.6904C326.242 27.3491 324.123 28.7291 321.53 28.7291V28.7291ZM321.598 22.6217H319.193V26.863H321.598C323.163 26.863 324.138 26.0046 324.138 24.7436C324.138 23.3459 323.145 22.6242 321.598 22.6242V22.6217Z" fill="#129DFF"/>
<path d="M333.657 32.5147V31.4209C333.052 32.145 332.126 32.6996 330.781 32.6996C329.098 32.6996 327.619 31.7399 327.619 29.9573V29.9244C327.619 28.005 329.151 27.0631 331.219 27.0631C332.295 27.0631 332.986 27.215 333.675 27.4328V27.215C333.675 25.987 332.9 25.3134 331.488 25.3134C330.495 25.3134 329.756 25.5312 328.948 25.8679L328.394 24.2347C329.369 23.7967 330.328 23.4954 331.776 23.4954C334.402 23.4954 335.68 24.8754 335.68 27.2479V32.5147H333.662H333.657ZM333.708 28.747C333.186 28.5444 332.462 28.3925 331.672 28.3925C330.394 28.3925 329.637 28.9141 329.637 29.8231V29.856C329.637 30.6967 330.394 31.1677 331.353 31.1677C332.7 31.1677 333.708 30.4106 333.708 29.299V28.7444V28.747Z" fill="#129DFF"/>
<path d="M346 23.6294L341.688 34.8998H339.711L340.653 32.5171L336.959 23.6294H339.037L341.559 30.1926L343.977 23.6294H346Z" fill="#129DFF"/>
<path d="M205.024 28.1595L205.813 26.0503H201.018L201.826 28.1595L201.58 30.522H203.408L205.251 30.5144L205.024 28.1595Z" fill="white"/>
<path d="M208.006 26.7566L205.839 28.167V30.6763L204.18 32.2665V33.0134L205.778 34.4846H207.112L210.48 28.6177L208.006 26.7566Z" fill="white"/>
<path d="M207.097 21.7051H199.694L198.833 25.4805H207.988L207.097 21.7051Z" fill="white"/>
<path d="M201.011 28.1671L198.818 26.7744L196.334 28.6178L199.717 34.5024H201.069L202.666 33.0135V32.2666L201.011 30.6764V28.1671Z" fill="white"/>
<path d="M223.549 32.4969C220.987 32.4969 219.095 30.4889 219.095 28.0252C219.095 25.5614 220.989 23.5054 223.567 23.5054C225.197 23.5054 226.21 24.108 227.01 24.9892L225.787 26.3109C225.184 25.6754 224.546 25.2348 223.551 25.2348C222.116 25.2348 221.07 26.4755 221.07 27.9923C221.07 29.509 222.131 30.7827 223.648 30.7827C224.577 30.7827 225.263 30.3421 225.883 29.7065L227.073 30.8814C226.225 31.8284 225.23 32.4969 223.549 32.4969V32.4969Z" fill="#003688"/>
<path d="M230.82 32.4969H228.845V23.5205H230.82V25.6247C231.359 24.3359 232.354 23.4547 233.871 23.5205V25.6095H233.757C232.028 25.6095 230.82 26.7363 230.82 29.0203V32.4969V32.4969Z" fill="#003688"/>
<path d="M244.203 23.5054L239.841 34.9125H237.841L238.793 32.4994L235.056 23.5054H237.16L239.712 30.1471L242.16 23.5054H244.203Z" fill="#003688"/>
<path d="M250.485 32.4792C249.064 32.4792 248.168 31.76 247.563 30.9624V34.9125H245.588V23.5054H247.563V25.1209C248.199 24.2245 249.097 23.5054 250.485 23.5054C252.525 23.5054 254.498 25.1209 254.498 27.9923C254.498 30.8637 252.541 32.4792 250.485 32.4792V32.4792ZM250.029 25.2171C248.692 25.2171 247.518 26.3109 247.518 27.9923C247.518 29.6736 248.692 30.7649 250.029 30.7649C251.366 30.7649 252.493 29.704 252.493 27.9923C252.493 26.2806 251.366 25.2171 250.029 25.2171Z" fill="#003688"/>
<path d="M258.825 25.3817V29.6078C258.825 30.375 259.214 30.6839 259.885 30.6839H260.66V32.4462H259.311C257.873 32.4412 256.852 31.8031 256.852 29.9167V25.3817H255.756V23.6851H256.852V21.3176H258.825V23.6851H260.66V25.3817H258.825V25.3817Z" fill="#003688"/>
<path d="M266.904 32.4969C264.276 32.4969 262.336 30.4889 262.336 28.0252C262.336 25.5614 264.293 23.5054 266.936 23.5054C269.58 23.5054 271.522 25.5133 271.522 27.9923C271.522 30.4712 269.565 32.4969 266.904 32.4969ZM266.904 25.2348C265.321 25.2348 264.308 26.4755 264.308 27.9923C264.308 29.509 265.402 30.7827 266.936 30.7827C268.471 30.7827 269.547 29.5419 269.547 28.0252C269.547 26.5085 268.453 25.2348 266.904 25.2348V25.2348Z" fill="#003688"/>
<path d="M290.394 32.4969C287.766 32.4969 285.826 30.4889 285.826 28.0252C285.826 25.5614 287.784 23.5054 290.427 23.5054C293.07 23.5054 295.012 25.5133 295.012 27.9923C295.012 30.4712 293.055 32.4969 290.394 32.4969ZM290.394 25.2348C288.811 25.2348 287.799 26.4755 287.799 27.9923C287.799 29.509 288.892 30.7827 290.427 30.7827C291.961 30.7827 293.037 29.5419 293.037 28.0252C293.037 26.5085 291.943 25.2348 290.394 25.2348V25.2348Z" fill="#003688"/>
<path d="M306.747 23.5054C308.623 23.5054 309.765 24.6955 309.765 26.8022V32.4969H307.79V27.4048C307.79 26.0349 307.154 25.3006 306.045 25.3006C304.936 25.3006 304.202 26.0501 304.202 27.4377V32.4969H302.227V27.3896C302.227 26.0527 301.574 25.3006 300.48 25.3006C299.387 25.3006 298.637 26.116 298.637 27.4555V32.4969H296.662V23.5054H298.637V24.9892C299.192 24.222 299.944 23.5054 301.265 23.5054C302.506 23.5054 303.369 24.108 303.828 25.0221C304.529 24.108 305.443 23.5054 306.749 23.5054H306.747Z" fill="#003688"/>
<path d="M275.134 30.684V31.6791C275.134 31.7221 275.114 31.7601 275.076 31.7778L274.215 32.2741C274.18 32.2944 274.134 32.2944 274.102 32.2741L273.238 31.7778C273.203 31.7576 273.18 31.7196 273.18 31.6791V30.684C273.18 30.6435 273.203 30.6055 273.238 30.5852L274.102 30.0889C274.137 30.0687 274.18 30.0687 274.215 30.0889L275.076 30.5852C275.112 30.6055 275.134 30.6435 275.134 30.684Z" fill="#003688"/>
<path d="M281.145 32.4867C278.583 32.4385 276.73 30.3951 276.778 27.9314C276.826 25.4677 278.758 23.4496 281.335 23.4977C282.965 23.5281 283.965 24.151 284.748 25.0473L283.5 26.3463C282.907 25.6981 282.279 25.2448 281.284 25.2271C279.849 25.1992 278.78 26.4197 278.752 27.9365C278.722 29.4861 279.76 30.7471 281.277 30.775C282.206 30.7927 282.9 30.3647 283.533 29.7419L284.7 30.9395C283.834 31.8688 282.826 32.5196 281.145 32.4867V32.4867Z" fill="#003688"/>
<path d="M203.408 17.1372L194 22.5686V33.4313L203.408 38.8627L212.816 33.4313V22.5686L203.408 17.1372ZM199.694 21.7051H207.097L207.991 25.4805H198.833L199.692 21.7051H199.694ZM202.669 33.0135L201.071 34.5024H199.719L196.337 28.6178L198.818 26.7719L201.011 28.1645V30.6739L202.669 32.264V33.011V33.0135ZM201.58 30.5219L201.826 28.1569L201.018 26.0477H205.811L205.021 28.1569L205.251 30.5118L203.406 30.5194H201.578L201.58 30.5219ZM207.112 34.4847H205.778L204.18 33.0135V32.2666L205.839 30.6764V28.1671L208.006 26.7567L210.48 28.6178L207.112 34.4847Z" fill="#003688"/>
<path d="M203.408 17.1372V21.7051H207.097L207.991 25.4805H203.408V26.0502H205.813L205.024 28.1595L205.254 30.5143L203.408 30.5219V38.8627L212.816 33.4313V22.5686L203.408 17.1372ZM207.115 34.4847H205.781L204.183 33.0135V32.2666L205.841 30.6764V28.1671L208.009 26.7567L210.482 28.6178L207.115 34.4847Z" fill="url(#paint0_linear_7389_76891)"/>
<path d="M201.58 30.5219L201.826 28.1569L201.018 26.0477H203.406V25.478H198.833L199.692 21.7026H203.406V17.1372L194 22.5686V33.4313L203.408 38.8627V30.5219H201.58V30.5219ZM202.669 33.0135L201.071 34.5024H199.719L196.337 28.6178L198.818 26.7719L201.011 28.1645V30.6739L202.669 32.264V33.011V33.0135Z" fill="url(#paint1_linear_7389_76891)"/>
<path fill-rule="evenodd" clip-rule="evenodd" d="M368 18.5349C362.773 18.5349 358.535 22.7726 358.535 28C358.535 33.2274 362.773 37.4651 368 37.4651C373.227 37.4651 377.465 33.2274 377.465 28C377.465 22.7726 373.227 18.5349 368 18.5349ZM357 28C357 21.9249 361.925 17 368 17C374.075 17 379 21.9249 379 28C379 34.0751 374.075 39 368 39C361.925 39 357 34.0751 357 28Z" fill="#002D72"/>
<path fill-rule="evenodd" clip-rule="evenodd" d="M368 26.3953C368.424 26.3953 368.767 26.7389 368.767 27.1628V33.1163C368.767 33.5401 368.424 33.8837 368 33.8837C367.576 33.8837 367.233 33.5401 367.233 33.1163V27.1628C367.233 26.7389 367.576 26.3953 368 26.3953Z" fill="#002D72"/>
<path d="M369.023 23.907C369.023 24.4721 368.565 24.9302 368 24.9302C367.435 24.9302 366.977 24.4721 366.977 23.907C366.977 23.3418 367.435 22.8837 368 22.8837C368.565 22.8837 369.023 23.3418 369.023 23.907Z" fill="#002D72"/>
<defs>
<linearGradient id="paint0_linear_7389_76891" x1="208.11" y1="38.8652" x2="208.11" y2="17.2385" gradientUnits="userSpaceOnUse">
<stop stop-color="#111C4E"/>
<stop offset="1" stop-color="#111C4E" stop-opacity="0"/>
</linearGradient>
<linearGradient id="paint1_linear_7389_76891" x1="198.704" y1="17.1651" x2="198.704" y2="36.7788" gradientUnits="userSpaceOnUse">
<stop stop-color="#111C4E"/>
<stop offset="1" stop-color="#111C4E" stop-opacity="0"/>
</linearGradient>
</defs>
</svg>
