<?xml version="1.0" encoding="UTF-8"?>
<svg width="343px" height="48px" viewBox="0 0 343 48" version="1.1" xmlns="http://www.w3.org/2000/svg" xmlns:xlink="http://www.w3.org/1999/xlink">
    <!-- Generator: Sketch 56.3 (81716) - https://sketch.com -->
    <title>Button/Primary/Pay/Standalone/Standard width</title>
    <desc>Created with Sketch.</desc>
    <g id="Button/Primary/Pay/Standalone/Standard-width" stroke="none" stroke-width="1" fill="none" fill-rule="evenodd">
        <g id="Elements/Buttons/Button">
            <rect id="bg" fill="#002C74" x="0" y="0" width="343" height="48" rx="4"></rect>
            <g id="crypto-pay-text" transform="translate(138.000000, 12.000000)">
                <g id="Pay" transform="translate(31.000000, 3.000000)" fill="#FFFFFF">
                    <path d="M11.5565642,5.04751229 C11.5565642,8.48849054 8.77703393,10.2540966 5.49097924,10.2540966 L1.74197209,10.2540966 L1.74197209,15.8448723 L0,15.8448723 L0,0 L5.77873596,0 C9.26358788,0 11.5565642,1.90142188 11.5565642,5.04751229 M9.79280608,5.11542022 C9.79280608,2.82887668 8.13797799,1.65211608 5.64529672,1.65211608 L1.74197209,1.65211608 L1.74197209,8.62430639 L5.55815273,8.62430639 C8.11619199,8.62430639 9.79280608,7.22056587 9.79280608,5.11542022 M17.7328946,5.52286776 C16.3867015,5.52286776 15.3282651,5.88473328 14.2689209,6.38334488 L13.7623965,4.95727847 C15.0187223,4.36843305 16.2550777,3.9833114 17.9089981,3.9833114 C21.0189493,3.9833114 22.7609214,5.61310158 22.7609214,8.69221431 L22.7609214,15.8448723 L21.128787,15.8448723 L21.128787,14.0792662 C20.3354136,15.1434671 19.0119142,16.0941781 17.0048792,16.0941781 C14.8870986,16.0941781 12.7475321,14.8718354 12.7475321,12.4271501 C12.7475321,9.93688284 14.7327811,8.62430639 17.6221491,8.62430639 C19.0772722,8.62430639 20.1148304,8.82803016 21.128787,9.12198775 L21.128787,8.7145402 C21.128787,6.60939455 19.8715534,5.52286776 17.7328946,5.52286776 M17.7982526,9.91455695 C19.1880177,9.91455695 20.3127198,10.1638628 21.150573,10.4122383 L21.150573,11.5443471 C21.150573,13.400187 19.4303869,14.7136937 17.3353001,14.7136937 C15.7912175,14.7136937 14.4677181,13.8532166 14.4677181,12.3592422 C14.4677181,10.8652679 15.6595938,9.91455695 17.7982526,9.91455695 Z M28.2568932,20 L29.7592193,15.995293 L24.5087938,4.18582585 L26.3842052,4.18582585 L30.529899,13.9422411 L34.1908544,4.18582585 L36,4.18582585 L29.7383411,20 L28.2568932,20 Z" id="Fill-1"></path>
                </g>
                <g id="Logo/Icon/White" fill="#FEFEFE">
                    <g id="Group" transform="translate(2.000000, 0.300000)">
                        <path d="M-2.8315128e-12,5.78850384 L-2.8315128e-12,17.3649616 L9.97426367,23.1540153 L19.9463394,17.3649616 L19.9463394,5.78850384 L9.97426367,7.10542736e-15 L-2.8315128e-12,5.78850384 Z M0.877910238,16.8574297 L0.877910238,6.29823529 L9.97426367,1.01616368 L19.0711641,6.29823529 L19.0711641,16.8574297 L9.97426367,22.1373018 L0.877910238,16.8574297 Z" id="Fill-1"></path>
                        <polygon id="Fill-2" points="13.8828513 4.9978977 6.04565638 4.9978977 5.13711501 9.01471355 14.8274937 9.01471355"></polygon>
                        <polygon id="Fill-3" points="7.43603647 14.542523 7.43603647 11.8734437 5.11463394 10.3898887 2.48746704 12.3529322 6.06857504 18.6132263 7.49893969 18.6132263 9.19076297 17.0301445 9.19076297 16.2344795"></polygon>
                        <polygon id="Fill-4" points="12.5196564 9.62078261 7.44473352 9.62078261 8.29967041 11.8648107 8.03930575 14.379376 9.9734432 14.379376 11.9261781 14.370578 11.68277 11.8648107"></polygon>
                        <polygon id="Fill-5" points="14.8411683 10.371743 12.546568 11.8734437 12.546568 14.542523 10.7923885 16.2344795 10.7923885 17.0301445 12.4836648 18.5956304 13.895979 18.5956304 17.4595835 12.3529322"></polygon>
                    </g>
                </g>
            </g>
        </g>
    </g>
</svg>